<svg width="43" height="50" viewBox="0 0 43 50" fill="none" xmlns="http://www.w3.org/2000/svg">
<g filter="url(#filter0_d_141_2988)">
<path d="M8.83643 17.9678C8.2385 11.7043 8.02346 4.94473 10.7026 6.34083C13.5729 9.08877 14.7586 10.8553 15.4989 12.8012C15.8012 12.722 16.0823 12.6801 16.3345 12.6801C17.1898 12.6801 18.1366 12.5765 19.1388 12.4668C21.3295 12.2271 23.7847 11.9585 26.1267 12.6801C26.449 12.6801 26.9041 12.8658 27.4393 13.1848C28.4041 11.5486 29.3016 10.3694 30.5393 8.74309C30.978 8.16661 31.4596 7.53385 32.002 6.80475C34.5137 3.8434 34.9114 12.013 34.067 19.6111C34.6069 20.3923 34.9396 21.0615 34.9396 21.493C34.9396 21.949 34.9439 22.3931 34.9482 22.8277C34.9889 27.0287 35.021 30.3424 31.0719 34.9571C28.7709 37.356 24.9303 40.7835 21.9161 40.7835C19.4191 40.7835 14.7188 36.9155 12.7604 34.9571C9.66383 31.8605 7.52148 28.3475 7.52148 21.493C7.52148 20.3526 8.03755 19.1292 8.83643 17.9678Z" fill="white"/>
<path d="M11.5412 5.46487L11.4163 5.34532L11.263 5.26542C10.7611 5.00387 10.1592 4.84727 9.5296 5.00748C8.89566 5.16881 8.46127 5.59317 8.17932 6.02776C7.65715 6.83265 7.43755 8.00714 7.33281 9.17351C7.12513 11.4862 7.31184 14.6507 7.58918 17.6562C6.84715 18.828 6.30882 20.1518 6.30882 21.493C6.30882 25.0495 6.86527 27.8124 7.86762 30.1178C8.87054 32.4245 10.2883 34.2 11.9029 35.8146C12.9279 36.8396 14.6464 38.3427 16.4411 39.5983C17.339 40.2265 18.2814 40.8108 19.1844 41.2425C20.061 41.6617 21.0198 41.9961 21.9161 41.9961C23.8219 41.9961 25.8003 40.9429 27.4648 39.7577C29.1759 38.5394 30.7704 37.0232 31.947 35.7965L31.9709 35.7717L31.9932 35.7456C34.0704 33.3184 35.1501 31.1709 35.683 29.0302C36.201 26.9492 36.1814 24.9377 36.1615 22.8865L36.1608 22.816C36.1566 22.3805 36.1523 21.9422 36.1523 21.493C36.1523 21.0077 35.978 20.5372 35.8022 20.1651C35.6708 19.8871 35.5062 19.5979 35.3197 19.3052C35.7078 15.5965 35.8082 11.7535 35.4974 9.10672C35.4161 8.41382 35.3034 7.77371 35.1494 7.22464C35.002 6.69857 34.7885 6.15051 34.4472 5.72702C34.0712 5.26038 33.4431 4.85277 32.6305 4.99988C31.96 5.12125 31.4474 5.58385 31.0772 6.02036L31.0522 6.04988L31.029 6.08094C30.4911 6.80407 30.0132 7.43198 29.5743 8.00868L29.5569 8.03159C28.5701 9.32819 27.7719 10.3769 26.976 11.622C26.7678 11.5517 26.5546 11.5001 26.3418 11.4785C23.8034 10.736 21.1945 11.0218 19.099 11.2513C19.0682 11.2547 19.0375 11.258 19.0069 11.2614C17.9875 11.3729 17.1107 11.4674 16.3345 11.4674C16.3072 11.4674 16.2799 11.4677 16.2525 11.4684C15.4032 9.64169 14.0725 7.8882 11.5412 5.46487Z" stroke="white" stroke-width="2.42533"/>
</g>
<path d="M32.0023 6.80492C34.6138 3.72582 34.94 12.6805 33.9607 20.5142L26.127 15.6179C28.0854 11.701 29.2725 10.4744 32.0023 6.80492Z" fill="#403937"/>
<path d="M31.9049 9.98664C33.5695 8.32205 32.7372 13.316 32.7372 19.1424L27.7432 15.8129C29.1815 12.8336 30.7365 11.155 31.9049 9.98664Z" fill="#E8DED2"/>
<path d="M10.7029 6.34083C7.46333 4.65267 8.45547 14.8894 9.2393 21.7543L16.3348 15.6177C15.4817 12.2369 14.8546 10.3155 10.7029 6.34083Z" fill="#403937"/>
<path d="M11.0952 9.15441C9.45627 7.51575 9.85927 14.5767 10.2628 19.1425L14.2369 13.9211C13.5922 12.4838 11.9275 9.98663 11.0952 9.15441Z" fill="#E8DED2"/>
<path d="M21.9161 40.7837C19.4191 40.7837 14.7188 36.9158 12.7604 34.9573C9.66383 31.8608 7.52148 28.3478 7.52148 21.4932C7.52148 17.5764 13.6093 12.6802 16.3345 12.6803C19.0596 12.6804 22.7134 11.6286 26.1267 12.6803C28.0851 12.6803 34.9396 19.5348 34.9396 21.4932C34.9396 26.3572 35.4296 29.8652 31.0719 34.9573C28.7709 37.3563 24.9303 40.7837 21.9161 40.7837Z" fill="#45434F"/>
<ellipse cx="15.2575" cy="22.4723" rx="1.66468" ry="1.66468" fill="#111111"/>
<path d="M13.9444 18.987C13.5564 19.8204 14.1492 20.0004 14.8352 20.3198C15.5211 20.6392 17.2825 21.5553 17.6705 20.7218C18.0586 19.8883 17.6075 18.6295 16.9215 18.3101C16.2356 17.9908 14.3325 18.1535 13.9444 18.987Z" fill="#E8DED2"/>
<path d="M28.0099 18.9869C28.398 19.8204 27.8052 20.0004 27.1192 20.3197C26.4332 20.6391 24.6719 21.5552 24.2838 20.7217C23.8958 19.8883 24.5599 18.6295 25.2459 18.3101C25.9318 17.9908 27.6219 18.1534 28.0099 18.9869Z" fill="#E8DED2"/>
<mask id="path-11-inside-1_141_2988" fill="white">
<ellipse cx="26.9098" cy="22.4723" rx="1.66468" ry="1.66468"/>
</mask>
<ellipse cx="26.9098" cy="22.4723" rx="1.66468" ry="1.66468" fill="#111111"/>
<path d="M26.1491 22.4723C26.1491 22.0522 26.4897 21.7116 26.9098 21.7116V26.5623C29.1686 26.5623 30.9998 24.7312 30.9998 22.4723H26.1491ZM26.9098 21.7116C27.3299 21.7116 27.6705 22.0522 27.6705 22.4723H22.8198C22.8198 24.7312 24.651 26.5623 26.9098 26.5623V21.7116ZM27.6705 22.4723C27.6705 22.8924 27.3299 23.233 26.9098 23.233V18.3823C24.651 18.3823 22.8198 20.2134 22.8198 22.4723H27.6705ZM26.9098 23.233C26.4897 23.233 26.1491 22.8924 26.1491 22.4723H30.9998C30.9998 20.2134 29.1686 18.3823 26.9098 18.3823V23.233Z" fill="#111111" mask="url(#path-11-inside-1_141_2988)"/>
<path d="M13.5929 34.1246C15.5513 36.0886 19.4193 39.1187 21.9163 39.1187C24.5868 39.1187 27.6689 36.7028 30.2397 34.1246C32.4075 31.9506 32.7367 29.9629 33.5691 28.2982C33.5691 28.2982 34.2909 25.1799 32.7368 24.9688C30.2211 24.6271 31.0721 27.4659 26.9104 27.4659C24.8565 27.4659 26.078 23.3042 21.084 23.3042C17.7546 23.3042 17.9366 27.4659 15.2576 27.4659C11.9282 27.4659 13.5929 24.9689 10.2635 24.9689C9.19102 24.9689 9.43118 27.4659 9.43118 27.4659C10.5062 30.3604 11.6058 32.1319 13.5929 34.1246Z" fill="#E8DED2"/>
<path d="M18.5868 33.2925C17.3663 32.6152 14.4251 29.1308 16.0898 29.1308C17.7545 29.1308 17.4222 29.9631 18.5868 29.9631C20.0432 29.9631 19.9914 29.3521 21.9162 29.3573C23.2508 29.3609 23.0884 29.9631 24.4132 29.9631C24.8976 29.9631 25.8924 28.9975 26.9103 29.1308C28.1069 29.2874 26.9102 31.6279 24.4132 33.2925C21.9162 34.9572 21.5866 34.9572 18.5868 33.2925Z" fill="#111111"/>
<path d="M18.5869 36.6218C18.5869 34.9451 19.8419 33.1109 19.2998 31.8469C19.205 31.6258 19.2805 31.3339 19.51 31.2616C21.4981 30.6351 22.3518 30.64 23.7215 31.2766C23.8867 31.3534 23.9501 31.5516 23.9041 31.7279C23.5077 33.2485 25.2456 35.1587 25.2456 36.6218C25.2456 38.0143 25.2456 38.2865 23.6514 39.4012C22.6858 40.0764 21.3742 39.9809 20.2434 39.4012C18.6948 38.6074 18.5869 37.5721 18.5869 36.6218Z" fill="#B85156"/>
<path d="M21.5246 24.1367C25.4415 24.1367 25.4415 29.0328 21.5246 29.0328C17.6077 29.0328 17.6077 24.1367 21.5246 24.1367Z" fill="#111111"/>
<defs>
<filter id="filter0_d_141_2988" x="0.101665" y="0.400622" width="42.2742" height="49.4671" filterUnits="userSpaceOnUse" color-interpolation-filters="sRGB">
<feFlood flood-opacity="0" result="BackgroundImageFix"/>
<feColorMatrix in="SourceAlpha" type="matrix" values="0 0 0 0 0 0 0 0 0 0 0 0 0 0 0 0 0 0 127 0" result="hardAlpha"/>
<feOffset dy="1.66468"/>
<feGaussianBlur stdDeviation="2.49702"/>
<feColorMatrix type="matrix" values="0 0 0 0 0 0 0 0 0 0 0 0 0 0 0 0 0 0 0.35 0"/>
<feBlend mode="normal" in2="BackgroundImageFix" result="effect1_dropShadow_141_2988"/>
<feBlend mode="normal" in="SourceGraphic" in2="effect1_dropShadow_141_2988" result="shape"/>
</filter>
</defs>
</svg>
