<svg width="46" height="52" viewBox="0 0 46 52" fill="none" xmlns="http://www.w3.org/2000/svg">
<path d="M44.3903 16.9951C41.7269 5.2761 31.5044 0 22.5249 0C22.5249 0 22.5249 0 22.4995 0C13.5453 0 3.29751 5.25073 0.634091 16.9698C-2.33371 30.0585 5.6819 41.1434 12.9365 48.119C15.6253 50.7063 19.0751 52 22.5249 52C25.9747 52 29.4244 50.7063 32.0878 48.119C39.3425 41.1434 47.3581 30.0839 44.3903 16.9951ZM22.5249 29.7034C18.1112 29.7034 14.5346 26.1268 14.5346 21.7132C14.5346 17.2995 18.1112 13.7229 22.5249 13.7229C26.9386 13.7229 30.5151 17.2995 30.5151 21.7132C30.5151 26.1268 26.9386 29.7034 22.5249 29.7034Z" fill="#FF5F5F"/>
</svg>
