<svg width="18" height="17" viewBox="0 0 23 22" fill="none" xmlns="http://www.w3.org/2000/svg">
<path d="M9.07665 0.0280762C13.8439 0.0280762 17.7085 3.89268 17.7085 8.6599C17.7085 10.761 16.9578 12.6868 15.7099 14.1837L22.1869 20.6604C22.4934 20.9669 22.4934 21.4637 22.1869 21.7702C21.9145 22.0426 21.4917 22.0728 21.1858 21.861L21.0772 21.7702L14.6004 15.2932C13.1036 16.541 11.1778 17.2917 9.07665 17.2917C4.30942 17.2917 0.444824 13.4271 0.444824 8.6599C0.444824 3.89268 4.30942 0.0280762 9.07665 0.0280762ZM9.07665 1.5975C5.17619 1.5975 2.01425 4.75945 2.01425 8.6599C2.01425 12.5604 5.17619 15.7223 9.07665 15.7223C12.9771 15.7223 16.1391 12.5604 16.1391 8.6599C16.1391 4.75945 12.9771 1.5975 9.07665 1.5975Z" fill="#212121"/>
</svg>
