<svg width="65" height="65" viewBox="0 0 74 74" fill="none" xmlns="http://www.w3.org/2000/svg">
<path d="M38.8166 67.7227H4.66385C3.45989 67.7227 2.48389 66.7468 2.48389 65.5427V4.5037C2.48389 3.29974 3.45989 2.32373 4.66385 2.32373H65.7029C66.9069 2.32373 67.8828 3.29974 67.8828 4.5037V38.6565" stroke="#D9D9D9" stroke-width="4.10963" stroke-linecap="round" stroke-linejoin="round"/>
<path d="M2.48389 49.5566L27.9168 38.6567L47.8998 47.7399" stroke="#D9D9D9" stroke-width="4.10963" stroke-linecap="round" stroke-linejoin="round"/>
<path d="M49.7163 27.7567C45.7029 27.7567 42.4497 24.5034 42.4497 20.4902C42.4497 16.477 45.7029 13.2236 49.7163 13.2236C53.7296 13.2236 56.9828 16.477 56.9828 20.4902C56.9828 24.5034 53.7296 27.7567 49.7163 27.7567Z" stroke="#D9D9D9" stroke-width="4.10963" stroke-linecap="round" stroke-linejoin="round"/>
<path d="M49.7168 60.4565H60.6166M60.6166 60.4565H71.5164M60.6166 60.4565V49.5566M60.6166 60.4565V71.3563" stroke="#D9D9D9" stroke-width="4.10963" stroke-linecap="round" stroke-linejoin="round"/>
</svg>
