<svg width="27" height="29" viewBox="0 0 27 29" fill="none" xmlns="http://www.w3.org/2000/svg">
<path d="M4.89125 22.8374C4.95839 22.8374 5.02553 22.8302 5.09268 22.8195L10.7393 21.7669C10.8064 21.7526 10.8702 21.7205 10.9172 21.667L25.1478 6.54077C25.1789 6.50775 25.2036 6.46854 25.2205 6.42537C25.2373 6.38221 25.246 6.33593 25.246 6.2892C25.246 6.24246 25.2373 6.19619 25.2205 6.15302C25.2036 6.10985 25.1789 6.07064 25.1478 6.03763L19.5684 0.103482C19.5046 0.0356835 19.4206 0 19.33 0C19.2394 0 19.1554 0.0356835 19.0917 0.103482L4.86104 15.2297C4.81068 15.2832 4.78047 15.3474 4.76704 15.4188L3.7767 21.4207C3.74405 21.6119 3.75571 21.8086 3.8107 21.9939C3.86569 22.1792 3.96233 22.3475 4.09227 22.4841C4.31383 22.7125 4.59247 22.8374 4.89125 22.8374ZM7.15392 16.6142L19.33 3.67539L21.7907 6.29098L9.61465 19.2298L6.63021 19.79L7.15392 16.6142ZM25.7823 25.8348H1.07426C0.480061 25.8348 0 26.345 0 26.9766V28.2612C0 28.4183 0.120854 28.5467 0.268566 28.5467H26.588C26.7357 28.5467 26.8566 28.4183 26.8566 28.2612V26.9766C26.8566 26.345 26.3765 25.8348 25.7823 25.8348Z" fill="#D9D9D9"/>
<path d="M4.89125 22.8374C4.95839 22.8374 5.02553 22.8302 5.09268 22.8195L10.7393 21.7669C10.8064 21.7526 10.8702 21.7205 10.9172 21.667L25.1478 6.54077C25.1789 6.50775 25.2036 6.46854 25.2205 6.42537C25.2373 6.38221 25.246 6.33593 25.246 6.2892C25.246 6.24246 25.2373 6.19619 25.2205 6.15302C25.2036 6.10985 25.1789 6.07064 25.1478 6.03763L19.5684 0.103482C19.5046 0.0356835 19.4206 0 19.33 0C19.2394 0 19.1554 0.0356835 19.0917 0.103482L4.86104 15.2297C4.81068 15.2832 4.78047 15.3474 4.76704 15.4188L3.7767 21.4207C3.74405 21.6119 3.75571 21.8086 3.8107 21.9939C3.86569 22.1792 3.96233 22.3475 4.09227 22.4841C4.31383 22.7125 4.59247 22.8374 4.89125 22.8374ZM7.15392 16.6142L19.33 3.67539L21.7907 6.29098L9.61465 19.2298L6.63021 19.79L7.15392 16.6142ZM25.7823 25.8348H1.07426C0.480061 25.8348 0 26.345 0 26.9766V28.2612C0 28.4183 0.120854 28.5467 0.268566 28.5467H26.588C26.7357 28.5467 26.8566 28.4183 26.8566 28.2612V26.9766C26.8566 26.345 26.3765 25.8348 25.7823 25.8348Z" fill="#D9D9D9"/>
</svg>
