<svg width="15" height="14" viewBox="0 0 15 14" fill="none" xmlns="http://www.w3.org/2000/svg">
<path d="M0.71613 13.5714L1.51008 9.77533L10.566 0.67104C10.9527 0.285368 11.4858 0.0462077 12.0747 0.0439453H12.0788C13.2609 0.0441089 14.2191 1.0024 14.2191 2.1845C14.2191 2.77551 13.9795 3.31059 13.5923 3.69794L4.51155 12.7768L0.71613 13.5714ZM2.36482 10.2355L1.9182 12.3693L4.05132 11.9221L12.9348 3.03981C13.1536 2.82087 13.2889 2.51848 13.2889 2.18446C13.2889 1.51617 12.7471 0.974379 12.0788 0.974351H12.0751C11.7425 0.975387 11.4417 1.11027 11.2234 1.32791L11.2235 1.32789L2.36482 10.2355ZM14.3428 14H0.138672V13.0696H14.3428V14ZM11.6508 4.98126L9.28142 2.61187L9.93891 1.95437L12.3083 4.3238L11.6508 4.98126Z" fill="#B7B7B7"/>
</svg>
