<svg width="42" height="43" viewBox="0 0 42 43" fill="none" xmlns="http://www.w3.org/2000/svg">
<path d="M38.868 21.687C38.868 20.1957 38.7445 19.1075 38.4773 17.9789H21.1006V24.7099H31.3003C31.0947 26.3827 29.9843 28.9018 27.5165 30.5945L27.4819 30.8199L32.9761 34.991L33.3568 35.0283C36.8526 31.8642 38.868 27.2089 38.868 21.687" fill="#4285F4"/>
<path d="M21.0995 39.4218C26.0964 39.4218 30.2915 37.8095 33.3556 35.0284L27.5154 30.5946C25.9526 31.6628 23.855 32.4084 21.0995 32.4084C16.2052 32.4084 12.0513 29.2445 10.5706 24.8713L10.3535 24.8893L4.64063 29.2223L4.56592 29.4258C7.60937 35.3507 13.8609 39.4218 21.0995 39.4218Z" fill="#34A853"/>
<path d="M10.5716 24.8713C10.1809 23.7428 9.95474 22.5335 9.95474 21.2841C9.95474 20.0346 10.1809 18.8254 10.551 17.6969L10.5407 17.4566L4.75614 13.0541L4.56688 13.1423C3.31253 15.601 2.59277 18.362 2.59277 21.2841C2.59277 24.2063 3.31253 26.9671 4.56688 29.4258L10.5716 24.8713" fill="#FBBC05"/>
<path d="M21.0996 10.1597C24.5748 10.1597 26.9191 11.6309 28.2558 12.8603L33.4791 7.86237C30.2712 4.94022 26.0966 3.14661 21.0996 3.14661C13.8609 3.14661 7.60938 7.21745 4.56592 13.1423L10.5501 17.6969C12.0514 13.3238 16.2053 10.1597 21.0996 10.1597" fill="#EB4335"/>
</svg>
